<svg xmlns="http://www.w3.org/2000/svg" width="1200" height="420" viewBox="0 0 1200 420">

          <g transform="translate(210 210) scale(0.78) translate(-128 -128)">
  <path d="M42 136 C10 110, 6 68, 22 34" fill="none" stroke="#1FA3F2" stroke-width="10" stroke-linecap="round"/>
  <path d="M56 150 C28 128, 22 92, 34 60" fill="none" stroke="#1FA3F2" stroke-width="10" stroke-linecap="round"/>
  <path d="M214 136 C246 110, 250 68, 234 34" fill="none" stroke="#1FA3F2" stroke-width="10" stroke-linecap="round"/>
  <path d="M200 150 C228 128, 234 92, 222 60" fill="none" stroke="#1FA3F2" stroke-width="10" stroke-linecap="round"/>
  <circle cx="20" cy="94" r="7" fill="#1FA3F2"/>
  <circle cx="236" cy="94" r="7" fill="#1FA3F2"/>
  <rect x="76" y="24" width="104" height="170" rx="52" fill="#4CBCF5" stroke="#0A1F44" stroke-width="4"/>
  <circle cx="96" cy="36" r="16" fill="#4CBCF5" stroke="#0A1F44" stroke-width="4"/>
  <circle cx="160" cy="36" r="16" fill="#4CBCF5" stroke="#0A1F44" stroke-width="4"/>
  <circle cx="108" cy="84" r="26" fill="#F8FBFF" stroke="#0A1F44" stroke-width="4"/>
  <circle cx="148" cy="84" r="26" fill="#F8FBFF" stroke="#0A1F44" stroke-width="4"/>
  <circle cx="114" cy="84" r="8" fill="#0A1F44"/>
  <circle cx="154" cy="84" r="8" fill="#0A1F44"/>
  <path d="M118 104 C124 98, 132 98, 138 104" fill="none" stroke="#0A1F44" stroke-width="4" stroke-linecap="round"/>
  <rect x="118" y="104" width="20" height="18" rx="8" fill="#F8FBFF" stroke="#0A1F44" stroke-width="4"/>
  <line x1="126" y1="122" x2="126" y2="136" stroke="#0A1F44" stroke-width="4" stroke-linecap="round"/>
  <line x1="130" y1="122" x2="130" y2="138" stroke="#0A1F44" stroke-width="4" stroke-linecap="round"/>
  <path d="M80 112 L128 96 L176 112 L168 176 L128 204 L88 176 Z" fill="#F8FBFF" stroke="#0A1F44" stroke-width="4"/>
  <path d="M94 118 L128 107 L162 118 L156 170 L128 191 L100 170 Z" fill="#0B234C"/>
  <rect x="114" y="132" width="28" height="28" rx="6" fill="#F8FBFF"/>
  <path d="M118 132 V124 C118 116, 123 110, 128 110 C133 110, 138 116, 138 124 V132" fill="none" stroke="#F8FBFF" stroke-width="6" stroke-linecap="round"/>
  <circle cx="128" cy="146" r="4" fill="#0A1F44"/>
  <rect x="126" y="146" width="4" height="8" rx="2" fill="#0A1F44"/>
</g>
          <text x="355" y="220" font-family="'Segoe UI', 'Arial', sans-serif" font-size="102" font-weight="800" letter-spacing="-2">
            <tspan fill="#0A1F44">WS</tspan><tspan fill="#1E9AE6">Auth</tspan><tspan fill="#0A1F44">Kit</tspan>
          </text>
          <line x1="360" x2="458" y1="305" y2="305" stroke="#1FA3F2" stroke-width="6" stroke-linecap="round"/>
          <line x1="900" x2="998" y1="305" y2="305" stroke="#1FA3F2" stroke-width="6" stroke-linecap="round"/>
          <text x="480" y="318" font-family="'Segoe UI', 'Arial', sans-serif" font-size="26" font-weight="700" letter-spacing="2.5" fill="#1F3B67">
            SECURE WEBSOCKET AUTHENTICATION FOR GO
          </text>
        </svg>